<svg xmlns:dc="http://purl.org/dc/elements/1.1/" xmlns:cc="http://creativecommons.org/ns#" xmlns:rdf="http://www.w3.org/1999/02/22-rdf-syntax-ns#" xmlns:svg="http://www.w3.org/2000/svg" xmlns="http://www.w3.org/2000/svg" version="1.1" id="Barrios" x="0px" y="0px" viewBox="0 0 470.7 531.3" style="enable-background:new 0 0 470.7 531.3" xml:space="preserve">

<style type="text/css" id="style3979">.st0{fill:transparent}.st1{fill:#d1d1d1}</style>
<path class="st0" d="M457.7,272.5h-4.4c0.7-0.9,1.3-1.9,1.7-2.8c1.4-3.3,1.4-8.2-2.4-12l-14.7-14.6c-1.3-1.3-2.1-3.1-2.1-5v-63.4  c0-2.9-1.1-5.7-3.2-7.8l-42.3-42.4c-2.1-2.1-4.8-3.2-7.8-3.2h-21.2c-2.3,0-4.6-0.9-6.2-2.6L242.6,6.4c-1.7-1.7-4-2.6-6.4-2.6h-62.8  c-2.9,0-5.7,1.1-7.8,3.2L5.9,166.8c-2.1,2.1-3.2,4.8-3.2,7.8v190.6c0,2.9,1.1,5.7,3.2,7.8l150.6,150.6c2.1,2.1,4.8,3.2,7.8,3.2  c2.9,0,5.7-1.1,7.8-3.2l111.1-111.1c1.6-1.6,3.7-2.4,5.9-2.4h72.6c2.9,0,5.7-1.1,7.8-3.2l83.2-82.8c3.9-3.8,3.8-8.7,2.4-12  c-0.4-0.9-1-1.9-1.7-2.8h4.4c6.1,0,11-4.9,11-11v-14.6C468.7,277.4,463.8,272.5,457.7,272.5z" id="fondo" />
<path class="st1" d="M162.7,78.2h-19.3c-2.2,0-4,1.8-4,4v19.3c0,2.2,1.8,4,4,4h19.3c2.2,0,4-1.8,4-4V82.2  C166.7,80,164.9,78.2,162.7,78.2z" id="COGHLAN" />
<path class="st1" d="M299.7,218.3c0-3.9-3.1-7-7-7h-13.1c-3.9,0-7,3.1-7,7v47.2c0,3.9,3.1,7,7,7h13.1c3.9,0,7-3.1,7-7V218.3z" id="ALMAGRO" />
<path class="st1" d="M303.7,218.3v47.2c0,3.9,3.1,7,7,7h37c3.9,0,7-3.1,7-7v-47.2c0-3.9-3.1-7-7-7h-37  C306.8,211.3,303.7,214.4,303.7,218.3z" id="BALVANERA" />
<path class="st1" d="M285.9,203c0.9,2.1,3,4.3,6.5,4.3h55.4c3.9,0,7-3.1,7-7V145c0-4.4-3.6-7-7.1-7c-1.3,0-3.2,0.4-4.9,2.1  l-55.4,55.3C285,197.8,285,200.9,285.9,203z" id="RECOLETA" />
<path class="st1" d="M365.7,207.3h59c3.9,0,7-3.1,7-7v-25.6c0-1.9-0.7-3.6-2-4.9l-42.3-42.4c-1.3-1.3-3.1-2.1-5-2.1h-16.7  c-3.9,0-7,3.1-7,7v68C358.7,204.2,361.8,207.3,365.7,207.3z" id="RETIRO" />
<path class="st1" d="M358.7,218.3v14.6c0,3.9,3.1,7,7,7h37c3.9,0,7-3.1,7-7v-14.6c0-3.9-3.1-7-7-7h-37  C361.8,211.3,358.7,214.4,358.7,218.3z" id="path3993" />
<path class="st1" d="M402.7,243.9h-37c-3.9,0-7,3.1-7,7v14.6c0,3.9,3.1,7,7,7h37c3.9,0,7-3.1,7-7v-14.6  C409.7,247,406.6,243.9,402.7,243.9z" id="MONSERRAT" />
<path class="st1" d="M310.7,305.1h37c3.9,0,7-3.1,7-7v-14.6c0-3.9-3.1-7-7-7h-37c-3.9,0-7,3.1-7,7v14.6  C303.7,302,306.8,305.1,310.7,305.1z" id="SAN_CRISTOBAL" />
<path class="st1" d="M299.7,336.2v-52.7c0-3.9-3.1-7-7-7h-13.1c-3.9,0-7,3.1-7,7v52.7c0,3.9,3.1,7,7,7h13.1  C296.6,343.2,299.7,340.1,299.7,336.2z" id="BOEDO" />
<path class="st1" d="M347.7,309.1h-37c-3.9,0-7,3.1-7,7v20c0,3.9,3.1,7,7,7h37c3.9,0,7-3.1,7-7v-20  C354.7,312.2,351.6,309.1,347.7,309.1z" id="PARQUE_PATRICIOS" />
<path class="st1" d="M261.6,309.1h-55.8c-3.5,0-5.6,2.2-6.5,4.3c-0.9,2.1-0.9,5.2,1.5,7.6L221,341c1.3,1.3,3.1,2,4.9,2h35.7  c3.9,0,7-3.1,7-7v-19.9C268.6,312.2,265.5,309.1,261.6,309.1z" id="PARQUE_CHACABUCO" />
<path class="st1" d="M402.7,276.5h-37c-3.9,0-7,3.1-7,7v14.6c0,3.9,3.1,7,7,7h37c3.9,0,7-3.1,7-7v-14.6  C409.7,279.6,406.6,276.5,402.7,276.5z" id="CONSTITUCION" />
<path class="st1" d="M457.7,276.5h-37c-3.9,0-7,3.1-7,7v14.6c0,3.9,3.1,7,7,7h37c3.9,0,7-3.1,7-7v-14.6  C464.7,279.6,461.6,276.5,457.7,276.5z" id="SAN_TELMO" />
<path class="st1" d="M413.7,316.1v24c0,4.4,3.6,7,7.1,7c1.3,0,3.2-0.4,4.9-2.1l24.2-24c2.5-2.4,2.4-5.5,1.5-7.6  c-0.9-2.1-3-4.3-6.5-4.3h-24.2C416.8,309.1,413.7,312.2,413.7,316.1z" id="BOCA" />
<path class="st1" d="M413.7,218.3v47.2c0,3.9,3.1,7,7,7h24.1c3.5,0,5.6-2.2,6.5-4.3c0.9-2.1,0.9-5.2-1.6-7.6L435,246  c-2.1-2.1-3.3-4.9-3.3-7.8v-19.8c0-3.9-3.1-7-7-7h-4C416.8,211.3,413.7,214.4,413.7,218.3z" id="PUERTO_MADERO" />
<path class="st1" d="M74.7,327.1l31.8,31.8c1.3,1.3,3.1,2.1,4.9,2.1c1.9,0,3.6-0.7,4.9-2.1l9.7-9.7c2.7-2.7,2.7-7.2,0-9.9  l-31.8-31.8c-1.3-1.3-3.1-2.1-4.9-2.1s-3.6,0.7-4.9,2.1l-9.7,9.7C72,319.9,72,324.4,74.7,327.1z" id="VELEZ_SARSFIELD" />
<path class="st1" d="M123,381l-25.9-25.9c-1.3-1.3-3.1-2.1-4.9-2.1c-1.9,0-3.6,0.7-4.9,2.1l-41.7,41.7c-2.7,2.7-2.7,7.2,0,9.9  l25.9,25.9c1.3,1.3,3.1,2.1,4.9,2.1s3.6-0.7,4.9-2.1l41.7-41.7C125.7,388.2,125.7,383.7,123,381z" id="MATADEROS" />
<path class="st1" d="M138.9,352.1c-1.3-1.3-3.1-2.1-4.9-2.1c-1.9,0-3.6,0.7-4.9,2.1l-9.7,9.7c-2.7,2.7-2.7,7.2,0,9.9l31.8,31.8  c1.3,1.3,3.1,2.1,4.9,2.1c1.9,0,3.6-0.7,4.9-2.1l9.7-9.7c1.3-1.3,2.1-3.1,2.1-4.9s-0.7-3.6-2.1-4.9L138.9,352.1z" id="PARQUE_AVELLANEDA" />
<path class="st1" d="M227.1,353c-1.3-1.3-3.1-2.1-4.9-2.1s-3.6,0.7-4.9,2.1l-53.3,53.3c-1.3,1.3-2.1,3.1-2.1,4.9  c0,1.9,0.7,3.6,2.1,4.9l49.9,49.9c1.3,1.3,3.1,2.1,4.9,2.1s3.6-0.7,4.9-2.1l53.3-53.3c2.7-2.7,2.7-7.2,0-9.9L227.1,353z" id="VILLA_SOLDATI" />
<path class="st1" d="M134.7,469.9c2.1-2.1,4.8-3.2,7.8-3.2c2.9,0,5.7,1.1,7.8,3.2l9.4,9.4c1.3,1.3,3.1,2.1,4.9,2.1  c1.9,0,3.6-0.7,4.9-2.1l20.9-20.9c1.3-1.3,2.1-3.1,2.1-4.9c0-1.9-0.7-3.6-2.1-4.9l-54.8-54.8c-1.3-1.3-3.1-2.1-4.9-2.1  c-1.9,0-3.6,0.7-5,2.1l-41.7,41.8c-2.7,2.7-2.7,7.2,0,9.9l32.7,32.7c1.3,1.3,3.1,2.1,4.9,2.1c1.9,0,3.6-0.7,5-2.1L134.7,469.9z" id="VILLA_LUGANO" />
<path class="st1" d="M150.4,322.2c0-1.9-0.7-3.6-2.1-4.9l-31.8-31.8c-1.3-1.3-3.1-2.1-4.9-2.1s-3.6,0.7-4.9,2.1l-9.4,9.4  c-1.3,1.3-2.1,3.1-2.1,4.9s0.7,3.6,2.1,4.9l31.8,31.8c1.3,1.3,3.1,2.1,4.9,2.1c1.9,0,3.6-0.7,4.9-2.1l9.4-9.4  C149.6,325.8,150.4,324,150.4,322.2z" id="FLORESTA" />
<path class="st1" d="M137.3,260.3c-0.8-0.8-1.8-1.2-2.8-1.2c-1.1,0-2.1,0.4-2.8,1.2l-14.5,14.5c-1.6,1.6-1.6,4.1,0,5.7l13.9,13.9  c0.8,0.8,1.8,1.2,2.8,1.2s2.1-0.4,2.8-1.2l14.5-14.5c0.8-0.8,1.2-1.8,1.2-2.8s-0.4-2.1-1.2-2.8L137.3,260.3z" id="VILLA_SANTA_RITA" />
<path class="st1" d="M182,271.6c0-4.4-3.6-7-7.1-7c-1.3,0-3.2,0.4-4.9,2.1l-28.4,28.4c-2.7,2.7-2.7,7.2,0,9.9l9.5,9.5  c2.1,2.1,3.2,4.8,3.2,7.8c0,2.9-1.2,5.7-3.2,7.8l-9.4,9.4c-1.3,1.3-2.1,3.1-2.1,5s0.7,3.6,2.1,5l31.9,31.9c1.3,1.3,3.1,2.1,4.9,2.1  c1.9,0,3.6-0.7,4.9-2.1l31-31c1.3-1.3,2.1-3.1,2.1-5c0-1.9-0.7-3.6-2.1-5l-29.2-29.1c-2.1-2.1-3.2-4.8-3.2-7.8V271.6z" id="Flores" />
<path class="st1" d="M105.8,277.7c0-1.9-0.7-3.6-2.1-4.9l-18.5-18.5c-1.3-1.3-3.1-2.1-4.9-2.1c-1.9,0-3.6,0.7-4.9,2.1L43.6,286  c-1.3,1.3-2.1,3.1-2.1,4.9s0.7,3.6,2.1,4.9l18.5,18.5c1.3,1.3,3.1,2.1,4.9,2.1s3.6-0.7,4.9-2.1l31.7-31.7  C105,281.3,105.8,279.6,105.8,277.7z" id="MONTE_CASTRO" />
<path class="st1" d="M140.1,251.8c-1.6,1.6-1.6,4.1,0,5.7l13.9,13.9c0.8,0.8,1.8,1.2,2.8,1.2c1.1,0,2.1-0.4,2.8-1.2l18.7-18.7  c1.6-1.6,1.6-4.1,0-5.7l-13.9-13.9c-0.8-0.8-1.8-1.2-2.8-1.2c-1.1,0-2.1,0.4-2.8,1.2L140.1,251.8z" id="VILLA_GRAL._MITRE" />
<path class="st1" d="M262.8,204.4l-32.7-32.7c-1.3-1.3-3.1-2.1-4.9-2.1s-3.6,0.7-4.9,2.1l-50.9,50.9c-1.3,1.3-2.1,3.1-2.1,4.9  c0,1.9,0.7,3.6,2.1,4.9l13.4,13.4c1.3,1.3,3.1,2.1,4.9,2.1h38.6c1.9,0,3.6-0.7,5-2.1l31.5-31.6C265.6,211.5,265.6,207.1,262.8,204.4  z" id="VILLA_CRESPO" />
<path class="st1" d="M227.2,160.2c0,1.9,0.7,3.6,2.1,4.9l36.4,36.4c1.3,1.3,3.1,2.1,4.9,2.1c1.9,0,3.6-0.7,4.9-2l73.4-73.3  c1.3-1.3,2.1-3.1,2.1-5c0-1.9-0.7-3.6-2.1-5l-70.2-70.2c-1.3-1.3-3.1-2.1-4.9-2.1c-1.9,0-3.6,0.7-4.9,2.1l-39.6,39.6  c-1.3,1.3-2.1,3.1-2.1,4.9V160.2z" id="PALERMO" />
<path class="st1" d="M68.7,186.2c1.3,1.3,3.1,2.1,4.9,2.1c1.9,0,3.6-0.7,4.9-2.1l14.1-14.1c2.7-2.7,2.7-7.2,0-9.9l-33.4-33.4  c-1.3-1.3-3.1-2.1-4.9-2.1c-1.9,0-3.6,0.7-4.9,2.1L35.4,143c-2.7,2.7-2.7,7.2,0,9.9L68.7,186.2z" id="VILLA_PUEYRREDON" />
<path class="st1" d="M206.1,149.3c-1.1,0-2.1,0.4-2.8,1.2L171,182.7c-0.8,0.8-1.2,1.8-1.2,2.8s0.4,2.1,1.2,2.8l10.6,10.6  c0.8,0.8,1.8,1.2,2.8,1.2s2.1-0.4,2.8-1.2l32.2-32.2c0.8-0.8,1.2-1.8,1.2-2.8s-0.4-2.1-1.2-2.8l-10.6-10.6  C208.2,149.7,207.2,149.3,206.1,149.3z" id="CHACARITA" />
<path class="st1" d="M200.5,147.7c0.8-0.8,1.2-1.8,1.2-2.8c0-1.1-0.4-2.1-1.2-2.8l-9.9-9.9c-0.8-0.8-1.8-1.2-2.8-1.2  s-2.1,0.4-2.8,1.2l-32.2,32.2c-0.8,0.8-1.2,1.8-1.2,2.8c0,1.1,0.4,2.1,1.2,2.8l9.9,9.9c0.8,0.8,1.8,1.2,2.8,1.2  c1.1,0,2.1-0.4,2.8-1.2L200.5,147.7z" id="VILLA_ORTUZAR" />
<path class="st1" d="M148.2,163.1l31.7-31.7c1.3-1.3,2.1-3.1,2.1-4.9s-0.7-3.6-2.1-4.9l-10-10c-1.3-1.3-3.1-2.1-4.9-2.1h-23.8  c-1.9,0-3.6,0.7-4.9,2.1l-39.3,39.3c-2.7,2.7-2.7,7.2,0,9.9l2.4,2.4c1.3,1.3,3.1,2.1,4.9,2.1h39  C145.1,165.2,146.9,164.5,148.2,163.1z" id="VILLA_URQUIZA" />
<path class="st1" d="M135.4,79.8c0-1.9-0.7-3.6-2.1-4.9l-10-10c-1.3-1.3-3.1-2.1-4.9-2.1c-1.9,0-3.6,0.7-4.9,2.1l-51.3,51.3  c-2.7,2.7-2.7,7.2,0,9.9l22,22c1.3,1.3,3.1,2.1,4.9,2.1c1.9,0,3.6-0.7,4.9-2.1l39.3-39.3c1.3-1.3,2.1-3.1,2.1-4.9V79.8z" id="SAAVEDRA" />
<path class="st1" d="M268.6,298.1v-67c0-4.4-3.6-7-7.1-7c-1.3,0-3.2,0.4-4.9,2.1l-22.5,22.5c-2.1,2.1-4.8,3.2-7.8,3.2H193  c-3.9,0-7,3.1-7,7v39.2c0,3.9,3.1,7,7,7h68.6C265.5,305.1,268.6,302,268.6,298.1z" id="CABALLITO" />
<path class="st1" d="M402.7,309.1h-37c-3.9,0-7,3.1-7,7V336c0,6.1-4.9,11-11,11h-11.3c-3.9,0-7,3.1-7,7v44.9c0,3.9,3.1,7,7,7h25.3  c1.9,0,3.6-0.7,4.9-2l41-40.9c1.3-1.3,2.1-3.1,2.1-5v-41.9C409.7,312.2,406.6,309.1,402.7,309.1z" id="BARRACAS" />
<path class="st1" d="M318.4,347l-74.5,0.1c-3.4,0-5.6,2.2-6.5,4.3c-0.9,2.1-0.9,5.2,1.5,7.6l44.7,44.7c1.3,1.3,3.1,2.1,5,2.1h29.9  c3.9,0,7-3.1,7-7V354C325.4,350.2,322.3,347,318.4,347l0-1.9h0L318.4,347z" id="NUEVA_POMPEYA" />
<path class="st1" d="M136.2,72.1c1.3,1.3,3.1,2,4.9,2.1l23.8,0.1c1.9,0,3.7-0.7,5-2.1l52.4-52.4c2.4-2.4,2.4-5.5,1.5-7.6  s-3-4.3-6.5-4.3h-43.9c-1.9,0-3.6,0.7-4.9,2.1l-42.3,42.3c-2.7,2.7-2.7,7.2,0,9.9L136.2,72.1z" id="NUÑEZ" />
<path class="st1" d="M170.7,103.8c0,1.9,0.7,3.6,2.1,4.9l10,10c1.3,1.3,3.1,2.1,4.9,2.1s3.6-0.7,4.9-2.1L266,45.4  c1.3-1.3,2.1-3.1,2.1-5c0-1.9-0.7-3.6-2.1-5l-22-21.9c-1.3-1.3-3.1-2-4.9-2c-1.9,0-3.6,0.7-4.9,2.1L172.8,75  c-1.3,1.3-2.1,3.1-2.1,4.9V103.8z" id="BELGRANO" />
<path class="st1" d="M219.2,99.5c-0.7,0-1.8,0.2-2.8,1.2l-23,23c-0.8,0.8-1.2,1.8-1.2,2.8c0,1.1,0.4,2.1,1.2,2.8l23,22.9  c1,1,2.1,1.2,2.8,1.2c2,0,4-1.5,4-4v-46C223.2,101,221.1,99.5,219.2,99.5z" id="COLEGIALES" />
<path class="st1" d="M35.8,285.3c1.9,0,3.6-0.7,4.9-2.1l54.8-54.8c1.3-1.3,2.1-3.1,2.1-4.9c0-1.9-0.7-3.6-2.1-4.9l-63-63  c-1.3-1.3-3.1-2.1-4.9-2.1c-1.9,0-3.6,0.7-5,2.1l-13.9,14c-1.3,1.3-2,3.1-2,4.9v81.6c0,1.9,0.7,3.6,2,4.9l22.1,22.2  C32.2,284.5,33.9,285.3,35.8,285.3z" id="VILLA_DEVOTO" />
<path class="st1" d="M130.4,219.4c1.3-1.3,2-3.1,2-5l0-9.7c0-1.9-0.7-3.6-2.1-4.9L105.4,175c-1.3-1.3-3.1-2.1-4.9-2.1  c-1.9,0-3.6,0.7-4.9,2.1l-14,14c-2.7,2.7-2.7,7.2,0,9.9l20.5,20.6c1.3,1.3,3.1,2.1,5,2.1h18.4C127.3,221.5,129.1,220.8,130.4,219.4z  " id="AGRONOMIA" />
<path class="st1" d="M132.5,169.2H115c-1.7,0-3.1,0.9-3.7,2.5c-0.6,1.5-0.3,3.2,0.9,4.4l8.8,8.7c0.8,0.8,1.8,1.2,2.8,1.2  c1.1,0,2.1-0.4,2.8-1.2l8.7-8.7c1.2-1.2,1.5-2.8,0.9-4.4C135.6,170.1,134.2,169.2,132.5,169.2z" id="PARQUE_CHAS" />
<path class="st1" d="M136.5,232.9c0,4.4,3.6,7,7.1,7c1.3,0,3.2-0.4,4.9-2.1l28.2-28.2c2.7-2.7,2.7-7.2,0-9.9L151.9,175  c-1.3-1.3-3.1-2.1-5-2.1c-1.9,0-3.6,0.7-5,2.1l-10.5,10.5c-2.7,2.7-2.7,7.1,0,9.9l1.7,1.7c2,2.1,3.2,4.8,3.2,7.7L136.5,232.9z" id="PATERNAL" />
<path class="st1" d="M88.1,251.4l18.5,18.4c1.3,1.3,3.1,2,4.9,2c1.9,0,3.6-0.7,4.9-2.1l14-14c1.3-1.3,2.1-3.1,2.1-4.9v-18.4  c0-3.9-3.1-7-7-7H107c-1.9,0-3.6,0.7-4.9,2.1l-14,14c-1.3,1.3-2.1,3.1-2.1,5S86.8,250.1,88.1,251.4z" id="VILLA_DEL_PARQUE" />
<path class="st1" d="M13.5,271.5c-1-1-2.1-1.2-2.8-1.2c-2,0-4,1.5-4,4v33.3c0,2.5,2.1,4,4,4c0.7,0,1.8-0.2,2.8-1.2l16.6-16.6  c1.6-1.6,1.6-4.1,0-5.7L13.5,271.5z" id="VILLA_REAL" />
<path class="st1" d="M56.2,317.6c0.6-1.5,0.3-3.2-0.9-4.4l-16.7-16.6c-0.8-0.8-1.8-1.2-2.8-1.2c-1.1,0-2.1,0.4-2.8,1.2l-16.6,16.6  c-1.2,1.2-1.5,2.8-0.9,4.4s2,2.5,3.7,2.5h33.3C54.2,320.1,55.5,319.2,56.2,317.6z" id="VERSALLES" />
<path class="st1" d="M75.8,333.8c-1-1-2.1-1.2-2.8-1.2c-2,0-4,1.5-4,4V358c0,2.5,2.1,4,4,4c0.7,0,1.8-0.2,2.8-1.2l10.7-10.7  c1.6-1.6,1.6-4.1,0-5.7L75.8,333.8z" id="VILLA_LURO" />
<path class="st1" d="M58,324.1H13.7c-3.9,0-7,3.1-7,7v34c0,1.9,0.7,3.6,2.1,4.9l24,24c1.3,1.3,3.1,2.1,4.9,2.1  c1.9,0,3.6-0.7,4.9-2.1l20.3-20.3c1.3-1.3,2.1-3.1,2.1-4.9v-37.7C65,327.2,61.9,324.1,58,324.1z" id="LINIERS" />
<path class="st1" d="m 203.1,461.2 c -1.3,-1.3 -3.1,-2.1 -4.9,-2.1 -1.9,0 -3.6,0.7 -4.9,2.1 l -20.9,20.9 c -2.1,2.1 -4.8,3.2 -7.8,3.2 -2.9,0 -5.7,-1.1 -7.8,-3.2 l -9.4,-9.4 c -1.3,-1.3 -3.1,-2.1 -4.9,-2.1 -1.9,0 -3.6,0.7 -5,2.1 l -8.1,8.1 c -2.7,2.7 -2.7,7.2 0,9.9 l 29.9,29.9 c 1.3,1.3 3.1,2.1 4.9,2.1 1.9,0 3.6,-0.7 4.9,-2 L 210.9,479 c 1.3,-1.3 2.1,-3.1 2.1,-5 0,-1.9 -0.7,-3.6 -2.1,-5 z" id="VILLA_RIACHUELO" style="fill:#d1d1d1" /></svg>